<?xml version="1.0" encoding="UTF-8"?>
<svg id="Calque_2" data-name="Calque 2" xmlns="http://www.w3.org/2000/svg" xmlns:xlink="http://www.w3.org/1999/xlink" viewBox="0 0 555.6 225.35">
  <defs>
    <style>
      .cls-1 {
        fill: #e2e2e2;
      }

      .cls-2 {
        fill: url(#Dégradé_sans_nom_398);
      }

      .cls-3 {
        fill: url(#Dégradé_sans_nom_371);
      }
    </style>
    <linearGradient id="Dégradé_sans_nom_371" data-name="Dégradé sans nom 371" x1="0" y1="105.1" x2="136.22" y2="105.1" gradientUnits="userSpaceOnUse">
      <stop offset="0" stop-color="#24e7f6"/>
      <stop offset="1" stop-color="#1a1332"/>
    </linearGradient>
    <linearGradient id="Dégradé_sans_nom_398" data-name="Dégradé sans nom 398" x1="277.8" y1="215.91" x2="277.8" y2="11.69" gradientUnits="userSpaceOnUse">
      <stop offset="0" stop-color="#a9ccff"/>
      <stop offset="1" stop-color="#0059ff"/>
    </linearGradient>
  </defs>
  <g id="Calque_1-2" data-name="Calque 1">
    <g>
      <g>
        <path class="cls-3" d="M42.4,21.54v92.96l54.34-54.01c4.44-4.79,10.25-6.84,15.37-6.84,5.47,0,10.94,2.05,15.04,6.16,8.21,8.54,8.21,22.22,0,30.76l-31.1,31.11,36.22,55.37c7.17,10.25,4.1,23.25-5.47,30.07-3.41,2.39-7.51,3.08-11.61,3.08-6.84,0-14.02-3.08-18.46-9.56l-31.78-47.86-22.56,22.56v13.67c0,11.62-9.22,21.19-21.18,21.19S0,200.64,0,189.02V21.54C0,9.24,9.57,0,21.2,0s21.18,9.24,21.18,21.54h.01Z"/>
        <path class="cls-1" d="M179.35,0c13.34,0,23.92,10.26,23.92,23.25s-10.6,23.59-23.92,23.59-22.9-10.6-22.9-23.59S166.36,0,179.35,0ZM179.35,53.66c12.31,0,21.87,9.92,21.87,21.54v113.82c0,11.62-9.57,21.19-21.87,21.19-11.29,0-21.2-9.56-21.2-21.19v-113.82c0-11.62,9.91-21.54,21.2-21.54Z"/>
        <path class="cls-1" d="M299.47,53.66c39.65,0,72.12,32.48,72.14,72.47v62.89c0,11.62-9.91,21.19-21.53,21.19s-21.53-9.56-21.53-21.19v-62.89c0-16.75-13.34-29.73-29.06-29.73s-29.4,12.99-29.4,29.73v62.89c0,11.62-9.57,21.19-21.53,21.19s-21.53-9.56-21.53-21.19v-62.89c0-40,32.47-72.47,72.45-72.47Z"/>
        <g>
          <path class="cls-1" d="M484.87,146.03c-10.76,1.14-11.99-26.03-1.73-28.1,11.39-2.3,12.46,26.96,1.73,28.1Z"/>
          <path class="cls-1" d="M453.99,146.03c-10.76,1.14-11.99-26.03-1.73-28.1,11.39-2.3,12.45,26.96,1.73,28.1Z"/>
        </g>
        <path class="cls-1" d="M554.37,78.52c-8.25-4.02-19.85-4.36-24.09-13.44-2.54-5.42-4.09-11.74-6.49-17.26-.54-.79-1.43-1.11-2.35-.94-.65.11-1.25.58-1.51,1.18-2.87,5.88-3.86,13.46-7.48,18.87-12.43-8.38-27.38-13.26-43.5-13.26-43.41,0-78.27,34.87-78.27,78.26,0,22.13,9.06,42.03,23.69,56.23.17,1.34.31,2.89.39,4.6.11,2.29.07,4.07.04,4.92,0,0-.09,2.87-.45,5.49-.5,3.73-3.72,12.14-9.91,22.18,11.28-2.55,25.02-7.48,38.16-17.35.7-.53,1.39-1.06,2.06-1.61,7.63,2.48,15.8,3.81,24.29,3.81,43.07,0,77.93-34.86,77.93-78.27,0-15.37-4.37-29.66-11.93-41.71,5.31-3.5,14.39-5.17,19.42-7.69,1.66-.91,1.64-3.11,0-4ZM469.02,175.42c-24.25,0-43.9-19.24-43.9-43.5s19.65-43.47,43.9-43.47,43.08,19.65,43.08,43.47-19.67,43.5-43.08,43.5ZM537.95,81.51c-2.99,1.5-8.86,2.39-10.93,4.98-2.1,2.61-2.63,7.62-4.46,10.48-.58.38-1.3.22-1.62-.41-1.5-2.98-2.39-8.86-4.98-10.93-2.58-2.08-7.62-2.65-10.48-4.45-.35-.53-.23-1.2.29-1.57,2.73-1.19,5.84-1.96,8.52-3.21,4.48-2.1,4.66-7.84,6.65-11.91.13-.3.42-.53.74-.59.46-.08.9.08,1.16.46,1.19,2.74,1.95,5.86,3.21,8.53,2.1,4.49,7.83,4.66,11.91,6.64.81.44.82,1.54,0,1.98Z"/>
      </g>
      <g>
        <path class="cls-2" d="M42.4,21.54v92.96l54.34-54.01c4.44-4.79,10.25-6.84,15.37-6.84,5.47,0,10.94,2.05,15.04,6.16,8.21,8.54,8.21,22.22,0,30.76l-31.1,31.11,36.22,55.37c7.17,10.25,4.1,23.25-5.47,30.07-3.41,2.39-7.51,3.08-11.61,3.08-6.84,0-14.02-3.08-18.46-9.56l-31.78-47.86-22.56,22.56v13.67c0,11.62-9.22,21.19-21.18,21.19S0,200.64,0,189.02V21.54C0,9.24,9.57,0,21.2,0s21.18,9.24,21.18,21.54h.01Z"/>
        <path class="cls-2" d="M179.35,0c13.34,0,23.92,10.26,23.92,23.25s-10.6,23.59-23.92,23.59-22.9-10.6-22.9-23.59S166.36,0,179.35,0ZM179.35,53.66c12.31,0,21.87,9.92,21.87,21.54v113.82c0,11.62-9.57,21.19-21.87,21.19-11.29,0-21.2-9.56-21.2-21.19v-113.82c0-11.62,9.91-21.54,21.2-21.54Z"/>
        <path class="cls-2" d="M299.47,53.66c39.65,0,72.12,32.48,72.14,72.47v62.89c0,11.62-9.91,21.19-21.53,21.19s-21.53-9.56-21.53-21.19v-62.89c0-16.75-13.34-29.73-29.06-29.73s-29.4,12.99-29.4,29.73v62.89c0,11.62-9.57,21.19-21.53,21.19s-21.53-9.56-21.53-21.19v-62.89c0-40,32.47-72.47,72.45-72.47Z"/>
        <g>
          <g>
            <path class="cls-2" d="M484.87,146.03c-10.76,1.14-11.99-26.03-1.73-28.1,11.39-2.3,12.46,26.96,1.73,28.1Z"/>
            <path class="cls-2" d="M453.99,146.03c-10.76,1.14-11.99-26.03-1.73-28.1,11.39-2.3,12.45,26.96,1.73,28.1Z"/>
          </g>
          <g>
            <path class="cls-2" d="M484.87,146.03c-10.76,1.14-11.99-26.03-1.73-28.1,11.39-2.3,12.46,26.96,1.73,28.1Z"/>
            <path class="cls-2" d="M453.99,146.03c-10.76,1.14-11.99-26.03-1.73-28.1,11.39-2.3,12.45,26.96,1.73,28.1Z"/>
          </g>
          <g>
            <path class="cls-2" d="M484.87,146.03c-10.76,1.14-11.99-26.03-1.73-28.1,11.39-2.3,12.46,26.96,1.73,28.1Z"/>
            <path class="cls-2" d="M453.99,146.03c-10.76,1.14-11.99-26.03-1.73-28.1,11.39-2.3,12.45,26.96,1.73,28.1Z"/>
          </g>
        </g>
        <path class="cls-2" d="M554.37,78.52c-8.25-4.02-19.85-4.36-24.09-13.44-2.54-5.42-4.09-11.74-6.49-17.26-.54-.79-1.43-1.11-2.35-.94-.65.11-1.25.58-1.51,1.18-2.87,5.88-3.86,13.46-7.48,18.87-12.43-8.38-27.38-13.26-43.5-13.26-43.41,0-78.27,34.87-78.27,78.26,0,22.13,9.06,42.03,23.69,56.23.17,1.34.31,2.89.39,4.6.11,2.29.07,4.07.04,4.92,0,0-.09,2.87-.45,5.49-.5,3.73-3.72,12.14-9.91,22.18,11.28-2.55,25.02-7.48,38.16-17.35.7-.53,1.39-1.06,2.06-1.61,7.63,2.48,15.8,3.81,24.29,3.81,43.07,0,77.93-34.86,77.93-78.27,0-15.37-4.37-29.66-11.93-41.71,5.31-3.5,14.39-5.17,19.42-7.69,1.66-.91,1.64-3.11,0-4ZM469.02,175.42c-24.25,0-43.9-19.24-43.9-43.5s19.65-43.47,43.9-43.47,43.08,19.65,43.08,43.47-19.67,43.5-43.08,43.5ZM537.95,81.51c-2.99,1.5-8.86,2.39-10.93,4.98-2.1,2.61-2.63,7.62-4.46,10.48-.58.38-1.3.22-1.62-.41-1.5-2.98-2.39-8.86-4.98-10.93-2.58-2.08-7.62-2.65-10.48-4.45-.35-.53-.23-1.2.29-1.57,2.73-1.19,5.84-1.96,8.52-3.21,4.48-2.1,4.66-7.84,6.65-11.91.13-.3.42-.53.74-.59.46-.08.9.08,1.16.46,1.19,2.74,1.95,5.86,3.21,8.53,2.1,4.49,7.83,4.66,11.91,6.64.81.44.82,1.54,0,1.98Z"/>
      </g>
    </g>
  </g>
</svg>