<?xml version="1.0" encoding="UTF-8"?>
<svg id="Calque_2" data-name="Calque 2" xmlns="http://www.w3.org/2000/svg" viewBox="0 0 289.96 313.85">
  <defs>
    <style>
      .cls-1 {
        fill: #212121;
      }
    </style>
  </defs>
  <g id="Calque_1-2" data-name="Calque 1">
    <g>
      <path class="cls-1" d="M162.57,124.99c-18.04,3.65-15.88,51.42,3.03,49.41,18.88-2.01,17-53.45-3.03-49.41Z"/>
      <path class="cls-1" d="M108.29,124.99c-18.04,3.65-15.88,51.42,3.03,49.41,18.86-2.01,17-53.45-3.03-49.41Z"/>
      <path class="cls-1" d="M287.79,55.71c-14.51-7.07-34.9-7.67-42.36-23.63-4.47-9.53-7.19-20.64-11.41-30.35-.96-1.38-2.51-1.95-4.14-1.65-1.14.2-2.19,1.02-2.65,2.08-5.05,10.34-6.79,23.66-13.16,33.17-21.85-14.74-48.14-23.31-76.47-23.31C61.28,12.01,0,73.31,0,149.6c0,38.91,15.93,73.9,41.65,98.86.3,2.36.54,5.08.69,8.1.2,4.02.12,7.16.07,8.66,0,0-.16,5.04-.79,9.64-.87,6.56-6.55,21.35-17.43,38.99,19.83-4.49,43.99-13.16,67.09-30.5,1.24-.94,2.44-1.86,3.63-2.84,13.42,4.35,27.78,6.69,42.7,6.69,75.73,0,137.01-61.28,137.01-137.6,0-27.02-7.68-52.15-20.97-73.34,9.33-6.15,25.29-9.08,34.15-13.52,2.92-1.6,2.89-5.47,0-7.04ZM137.74,226.07c-42.64,0-77.18-33.83-77.18-76.47s34.54-76.42,77.18-76.42,75.74,34.54,75.74,76.42-34.57,76.47-75.74,76.47ZM258.93,60.97c-5.26,2.64-15.58,4.2-19.22,8.75-3.69,4.58-4.62,13.4-7.85,18.43-1.02.68-2.29.38-2.85-.73-2.64-5.24-4.2-15.58-8.76-19.22-4.53-3.66-13.4-4.67-18.43-7.83-.61-.94-.41-2.11.51-2.75,4.8-2.09,10.27-3.45,14.99-5.64,7.88-3.69,8.19-13.78,11.69-20.94.23-.53.74-.94,1.3-1.04.81-.15,1.58.13,2.04.81,2.09,4.81,3.43,10.3,5.64,15,3.69,7.9,13.77,8.19,20.94,11.67,1.42.78,1.43,2.7,0,3.48Z"/>
    </g>
  </g>
</svg>