<svg width="82" height="82" viewBox="0 0 82 82" fill="none" xmlns="http://www.w3.org/2000/svg">
<path d="M31.1157 18.614C33.1589 12.6348 41.4204 12.4537 43.8428 18.0707L44.0478 18.6174L46.805 26.6807C47.4369 28.5299 48.458 30.2221 49.7995 31.6432C51.141 33.0642 52.7716 34.181 54.5814 34.9183L55.3228 35.1951L63.3861 37.9489C69.3653 39.9921 69.5464 48.2536 63.9328 50.676L63.3861 50.881L55.3228 53.6382C53.4729 54.2697 51.7801 55.2906 50.3584 56.6321C48.9368 57.9736 47.8194 59.6044 47.0818 61.4146L46.805 62.1526L44.0512 70.2193C42.008 76.1985 33.7465 76.3796 31.3275 70.766L31.1157 70.2193L28.3619 62.156C27.7304 60.3061 26.7095 58.6133 25.368 57.1916C24.0265 55.77 22.3957 54.6526 20.5855 53.915L19.8475 53.6382L11.7842 50.8844C5.80161 48.8412 5.62053 40.5797 11.2375 38.1607L11.7842 37.9489L19.8475 35.1951C21.6967 34.5632 23.3889 33.5421 24.81 32.2006C26.231 30.8591 27.3478 29.2285 28.0851 27.4187L28.3619 26.6807L31.1157 18.614ZM37.5834 20.8211L34.8296 28.8845C33.8674 31.7043 32.3022 34.2804 30.2429 36.4336C28.1835 38.5867 25.6796 40.2651 22.9054 41.3519L22.0513 41.6628L13.9879 44.4166L22.0513 47.1705C24.8711 48.1326 27.4472 49.6979 29.6004 51.7572C31.7535 53.8166 33.4319 56.3205 34.5187 59.0946L34.8296 59.9488L37.5834 68.0121L40.3373 59.9488C41.2994 57.129 42.8647 54.5529 44.924 52.3997C46.9834 50.2465 49.4873 48.5681 52.2614 47.4814L53.1156 47.1739L61.1789 44.4166L53.1156 41.6628C50.2958 40.7006 47.7197 39.1354 45.5665 37.0761C43.4133 35.0167 41.735 32.5128 40.6482 29.7386L40.3407 28.8845L37.5834 20.8211ZM64.9168 6.83331C65.556 6.83331 66.1823 7.01261 66.7247 7.35084C67.2671 7.68907 67.7037 8.17266 67.985 8.74665L68.1489 9.1464L69.3448 12.6519L72.8537 13.8477C73.4943 14.0654 74.0558 14.4682 74.4671 15.0053C74.8785 15.5424 75.1211 16.1896 75.1643 16.8647C75.2075 17.5399 75.0493 18.2126 74.7097 18.7978C74.3701 19.3829 73.8645 19.854 73.2569 20.1515L72.8537 20.3155L69.3482 21.5113L68.1524 25.0202C67.9344 25.6606 67.5312 26.2219 66.9939 26.6329C66.4566 27.0439 65.8093 27.2861 65.1342 27.3289C64.4591 27.3718 63.7865 27.2132 63.2016 26.8734C62.6166 26.5335 62.1458 26.0277 61.8486 25.42L61.6846 25.0202L60.4888 21.5147L56.9799 20.3189C56.3393 20.1013 55.7778 19.6984 55.3664 19.1613C54.9551 18.6242 54.7124 17.9771 54.6693 17.3019C54.6261 16.6268 54.7843 15.954 55.1239 15.3689C55.4634 14.7837 55.9691 14.3126 56.5767 14.0151L56.9799 13.8511L60.4854 12.6553L61.6812 9.1464C61.9116 8.47135 62.3475 7.88533 62.9277 7.47052C63.508 7.0557 64.2035 6.83288 64.9168 6.83331Z" fill="#EEF4FE"/>
</svg>
