<svg width="86" height="86" viewBox="0 0 86 86" fill="none" xmlns="http://www.w3.org/2000/svg">
<path fill-rule="evenodd" clip-rule="evenodd" d="M47.4153 4.87332C49.6799 2.15716 54.091 4.01332 53.7327 7.53216L51.2029 32.25H71.6673C72.3482 32.2502 73.0149 32.4445 73.5894 32.81C74.1638 33.1754 74.6223 33.697 74.9111 34.3137C75.1998 34.9303 75.3069 35.6164 75.2198 36.2917C75.1327 36.967 74.855 37.6035 74.4193 38.1267L38.5859 81.1267C36.3213 83.8428 31.9102 81.9867 32.2685 78.4678L34.7984 53.75H14.3339C13.6531 53.7497 12.9863 53.5555 12.4119 53.19C11.8374 52.8245 11.3789 52.303 11.0902 51.6863C10.8014 51.0697 10.6943 50.3836 10.7814 49.7083C10.8685 49.033 11.1462 48.3965 11.5819 47.8733L47.4153 4.87332ZM21.9844 46.5833H41.148C41.3483 46.5833 41.5464 46.6253 41.7295 46.7066C41.9126 46.7878 42.0767 46.9066 42.211 47.0551C42.3454 47.2037 42.4472 47.3788 42.5097 47.5691C42.5723 47.7594 42.5942 47.9607 42.5742 48.16L40.5926 67.5279L64.0169 39.4167H44.8532C44.6529 39.4167 44.4548 39.3747 44.2717 39.2934C44.0886 39.2121 43.9246 39.0934 43.7902 38.9448C43.6558 38.7963 43.5541 38.6212 43.4915 38.4309C43.429 38.2406 43.407 38.0393 43.427 37.84L45.4086 18.4757L21.9844 46.5833Z" fill="#EEF4FE"/>
</svg>
