<svg width="79" height="79" viewBox="0 0 79 79" fill="none" xmlns="http://www.w3.org/2000/svg">
<path d="M52.6667 36.2083C52.6667 40.5734 50.9327 44.7596 47.8461 47.8461C44.7596 50.9327 40.5734 52.6667 36.2083 52.6667C31.8433 52.6667 27.6571 50.9327 24.5705 47.8461C21.484 44.7596 19.75 40.5734 19.75 36.2083C19.75 31.8433 21.484 27.6571 24.5705 24.5705C27.6571 21.484 31.8433 19.75 36.2083 19.75C40.5734 19.75 44.7596 21.484 47.8461 24.5705C50.9327 27.6571 52.6667 31.8433 52.6667 36.2083Z" fill="#EEF4FE"/>
<path fill-rule="evenodd" clip-rule="evenodd" d="M6.58301 36.2083C6.58352 31.4762 7.71765 26.813 9.89045 22.6091C12.0633 18.4052 15.2115 14.783 19.0717 12.0457C22.9318 9.30845 27.3915 7.53571 32.0775 6.87592C36.7635 6.21613 41.5393 6.68848 46.0052 8.25345C50.4711 9.81841 54.4972 12.4304 57.7463 15.8709C60.9954 19.3113 63.3731 23.4801 64.6803 28.0281C65.9875 32.5762 66.1862 37.3712 65.2597 42.0118C64.3331 46.6524 62.3084 51.0035 59.355 54.7009L71.4519 66.7978C72.0515 67.4186 72.3833 68.2501 72.3758 69.1132C72.3683 69.9762 72.0221 70.8018 71.4118 71.4121C70.8015 72.0224 69.9759 72.3686 69.1128 72.3761C68.2498 72.3836 67.4183 72.0518 66.7975 71.4522L54.7006 59.3553C50.342 62.8379 45.0886 65.0189 39.545 65.6474C34.0015 66.2758 28.3931 65.3261 23.3656 62.9076C18.338 60.4891 14.0955 56.7 11.1265 51.9766C8.15744 47.2532 6.58253 41.7874 6.58301 36.2083ZM36.208 13.1667C33.1821 13.1667 30.1859 13.7627 27.3903 14.9206C24.5948 16.0786 22.0547 17.7758 19.9151 19.9154C17.7755 22.055 16.0782 24.5951 14.9203 27.3907C13.7623 30.1862 13.1663 33.1825 13.1663 36.2083C13.1663 39.2342 13.7623 42.2305 14.9203 45.026C16.0782 47.8216 17.7755 50.3616 19.9151 52.5013C22.0547 54.6409 24.5948 56.3381 27.3903 57.4961C30.1859 58.654 33.1821 59.25 36.208 59.25C42.319 59.25 48.1798 56.8224 52.5009 52.5013C56.8221 48.1801 59.2497 42.3194 59.2497 36.2083C59.2497 30.0973 56.8221 24.2366 52.5009 19.9154C48.1798 15.5943 42.319 13.1667 36.208 13.1667Z" fill="#EEF4FE"/>
</svg>
